<svg width="1268" height="273" viewBox="0 0 1268 273" fill="none" xmlns="http://www.w3.org/2000/svg">
<g filter="url(#filter0_d_23_41)">
<path d="M105.094 22.1424C83.4943 4.14243 58.4277 6.64243 48.5943 10.1424C80.5943 14.1424 79.0943 16.6424 90.0943 27.6424C98.8943 36.4424 113.761 40.3091 120.094 41.1424C147.61 41.8218 166.975 35.0968 176.17 30.0934C178.877 28.6202 181.499 26.9219 184.398 25.8748C223.096 11.8959 225.795 65.1983 222.094 94.6424C218.852 161.042 180.077 221.642 161.094 243.642C151.494 258.442 147.094 218.642 145.594 197.642C138.594 256.642 144.094 266.142 158.594 264.142C182.094 257.142 225.928 170.476 234.094 141.142C248.894 79.9424 244.884 45.6664 241.029 36.1784C236.594 23.6424 231.094 12.6424 216.529 5.17835C193.785 -6.4768 178.033 4.14244 166.094 11.6424C134.894 31.2424 112.428 26.8091 105.094 22.1424Z" fill="#EED6CE"/>
<path d="M70.0943 35.1425C119.294 68.7425 167.761 58.1425 185.094 48.6425C173.261 65.3092 136.494 90.9425 84.0943 60.1425C31.6943 29.3425 24.5943 71.6425 27.5943 96.6425C29.761 122.642 39.9943 182.642 63.5943 214.642C87.1943 246.642 94.761 242.642 95.5943 236.642C92.3943 206.642 96.9277 187.809 99.5943 182.142C109.194 157.742 134.928 165.976 146.594 173.142C100.194 162.742 101.261 212.809 107.594 239.142C111.194 267.942 98.5943 262.142 91.0943 258.642C28.0943 213.142 6.59433 140.143 4.09433 85.1425C2.50342 50.1425 20.8943 1.54248 70.0943 35.1425Z" fill="#2A5055"/>
<path d="M56.568 89.0873L49.369 93.5439C48.6551 93.9858 48.7707 95.0577 49.5625 95.3371L56.0943 97.6425C108.697 147.693 139.982 148.075 199.094 97.6425L203.791 95.8361C204.548 95.5448 204.662 94.5207 203.987 94.0707L198.149 90.1789C197.484 89.7359 196.594 90.2123 196.594 91.011V96.6425C137.094 130.642 111.094 127.642 58.0943 96.6425V89.9376C58.0943 89.1541 57.2342 88.6749 56.568 89.0873Z" fill="#2A5055"/>
</g>
<path d="M283.045 69.0376V112.227L277.545 106.845H313.905V117.675H270.817V69.0376H283.045Z" fill="#010E10"/>
<path d="M389.329 69.0376V117.675H377.684V73.3177L380.531 73.5122L360.799 117.675H348.312L328.58 73.6419L331.427 73.3825V117.675H319.781V69.0376H338.608L357.046 111.579H352.129L370.503 69.0376H389.329Z" fill="#010E10"/>
<path d="M407.49 107.883V98.0254H441.002V107.883H407.49ZM432.463 69.0376L454.847 117.675H441.843L422.629 74.1607H426.381L407.231 117.675H394.227L416.612 69.0376H432.463Z" fill="#010E10"/>
<path d="M483.276 118.712C477.582 118.712 472.579 117.653 468.266 115.535C463.996 113.416 460.675 110.455 458.303 106.65C455.931 102.846 454.745 98.4145 454.745 93.3562C454.745 88.2979 455.931 83.8665 458.303 80.062C460.675 76.2575 463.996 73.2961 468.266 71.1776C472.579 69.0592 477.582 68 483.276 68C488.969 68 493.95 69.0592 498.22 71.1776C502.533 73.2961 505.876 76.2575 508.248 80.062C510.664 83.8665 511.871 88.2979 511.871 93.3562C511.871 98.4145 510.664 102.846 508.248 106.65C505.876 110.455 502.533 113.416 498.22 115.535C493.95 117.653 488.969 118.712 483.276 118.712ZM483.276 107.753C486.64 107.753 489.53 107.191 491.945 106.067C494.36 104.899 496.215 103.235 497.509 101.073C498.846 98.9117 499.514 96.3393 499.514 93.3562C499.514 90.3731 498.846 87.8008 497.509 85.6391C496.215 83.4774 494.36 81.8346 491.945 80.7105C489.53 79.5432 486.64 78.9596 483.276 78.9596C479.955 78.9596 477.086 79.5432 474.671 80.7105C472.256 81.8346 470.38 83.4774 469.043 85.6391C467.705 87.8008 467.037 90.3731 467.037 93.3562C467.037 96.3393 467.705 98.9117 469.043 101.073C470.38 103.235 472.256 104.899 474.671 106.067C477.086 107.191 479.955 107.753 483.276 107.753Z" fill="#010E10"/>
<path d="M559.092 69.0376C564.786 69.0376 569.767 70.0536 574.037 72.0855C578.307 74.1175 581.628 76.9492 584 80.5808C586.416 84.2124 587.623 88.4709 587.623 93.3562C587.623 98.1983 586.416 102.457 584 106.132C581.628 109.763 578.307 112.595 574.037 114.627C569.767 116.659 564.786 117.675 559.092 117.675H535.414V69.0376H559.092ZM547.576 112.681L541.624 106.845H559.998C563.103 106.845 565.799 106.283 568.085 105.159C570.371 104.035 572.139 102.478 573.39 100.49C574.641 98.4577 575.266 96.0799 575.266 93.3562C575.266 90.5893 574.641 88.2115 573.39 86.2227C572.139 84.234 570.371 82.6776 568.085 81.5536C565.799 80.4295 563.103 79.8675 559.998 79.8675H541.624L547.576 74.031V112.681Z" fill="#010E10"/>
<path d="M635.057 88.8167V97.8957H599.927V88.8167H635.057ZM608.208 93.3562L604.973 113.46L599.862 107.688H637.127V117.675H592.746L596.498 93.3562L592.746 69.0376H636.804V79.0244H599.862L604.973 73.2528L608.208 93.3562Z" fill="#010E10"/>
<path d="M690.12 109.309L686.174 110.023V69.0376H698.013V117.675H682.616L653.05 76.6899L656.996 75.9765V117.675H645.157V69.0376H661.007L690.12 109.309Z" fill="#010E10"/>
<path d="M722.785 74.4201H735.012V117.675H722.785V74.4201ZM703.894 69.0376H753.904V79.8675H703.894V69.0376Z" fill="#010E10"/>
<path d="M760.538 107.883V98.0254H794.05V107.883H760.538ZM785.511 69.0376L807.895 117.675H794.891L775.677 74.1607H779.429L760.279 117.675H747.275L769.66 69.0376H785.511Z" fill="#010E10"/>
<path d="M825.063 69.0376V112.227L819.564 106.845H855.923V117.675H812.835V69.0376H825.063Z" fill="#010E10"/>
<path d="M929.26 97.5714C928.786 101.765 927.341 105.461 924.925 108.661C922.51 111.817 919.318 114.281 915.35 116.054C911.382 117.826 906.854 118.712 901.764 118.712C896.2 118.712 891.305 117.653 887.078 115.535C882.895 113.416 879.638 110.455 877.309 106.65C874.98 102.846 873.815 98.4145 873.815 93.3562C873.815 88.2979 874.98 83.8665 877.309 80.062C879.638 76.2575 882.895 73.2961 887.078 71.1776C891.305 69.0592 896.2 68 901.764 68C906.854 68 911.382 68.8863 915.35 70.6588C919.318 72.4314 922.51 74.8957 924.925 78.0517C927.341 81.2077 928.786 84.9041 929.26 89.141H916.968C916.536 86.9361 915.652 85.0555 914.315 83.4991C913.021 81.9427 911.296 80.7538 909.139 79.9323C907.026 79.0677 904.568 78.6353 901.764 78.6353C898.529 78.6353 895.747 79.2406 893.418 80.4511C891.089 81.6184 889.299 83.3045 888.049 85.5094C886.798 87.7143 886.172 90.3299 886.172 93.3562C886.172 96.3825 886.798 98.9981 888.049 101.203C889.299 103.408 891.089 105.116 893.418 106.326C895.747 107.493 898.529 108.077 901.764 108.077C904.568 108.077 907.026 107.666 909.139 106.845C911.296 106.024 913.021 104.835 914.315 103.278C915.652 101.722 916.536 99.8196 916.968 97.5714H929.26Z" fill="#010E10"/>
<path d="M948.327 69.0376V112.227L942.827 106.845H979.187V117.675H936.099V69.0376H948.327Z" fill="#010E10"/>
<path d="M985.063 69.0376H997.291V117.675H985.063V69.0376Z" fill="#010E10"/>
<path d="M1051.7 109.309L1047.75 110.023V69.0376H1059.59V117.675H1044.19L1014.63 76.6899L1018.57 75.9765V117.675H1006.73V69.0376H1022.58L1051.7 109.309Z" fill="#010E10"/>
<path d="M1069.03 69.0376H1081.26V117.675H1069.03V69.0376Z" fill="#010E10"/>
<path d="M1143.94 97.5714C1143.47 101.765 1142.03 105.461 1139.61 108.661C1137.19 111.817 1134 114.281 1130.03 116.054C1126.07 117.826 1121.54 118.712 1116.45 118.712C1110.88 118.712 1105.99 117.653 1101.76 115.535C1097.58 113.416 1094.32 110.455 1091.99 106.65C1089.66 102.846 1088.5 98.4145 1088.5 93.3562C1088.5 88.2979 1089.66 83.8665 1091.99 80.062C1094.32 76.2575 1097.58 73.2961 1101.76 71.1776C1105.99 69.0592 1110.88 68 1116.45 68C1121.54 68 1126.07 68.8863 1130.03 70.6588C1134 72.4314 1137.19 74.8957 1139.61 78.0517C1142.03 81.2077 1143.47 84.9041 1143.94 89.141H1131.65C1131.22 86.9361 1130.34 85.0555 1129 83.4991C1127.71 81.9427 1125.98 80.7538 1123.82 79.9323C1121.71 79.0677 1119.25 78.6353 1116.45 78.6353C1113.21 78.6353 1110.43 79.2406 1108.1 80.4511C1105.77 81.6184 1103.98 83.3045 1102.73 85.5094C1101.48 87.7143 1100.86 90.3299 1100.86 93.3562C1100.86 96.3825 1101.48 98.9981 1102.73 101.203C1103.98 103.408 1105.77 105.116 1108.1 106.326C1110.43 107.493 1113.21 108.077 1116.45 108.077C1119.25 108.077 1121.71 107.666 1123.82 106.845C1125.98 106.024 1127.71 104.835 1129 103.278C1130.34 101.722 1131.22 99.8196 1131.65 97.5714H1143.94Z" fill="#010E10"/>
<path d="M311.381 177.388L324.256 139.84H328.202L311.446 186.986L297.601 147.882L283.756 186.986L267 139.84H270.946L284.015 177.388L297.601 138.089L311.381 177.388Z" fill="#010E10"/>
<path d="M336.395 162.213V158.841H366.932V162.213H336.395ZM364.538 139.84H368.161V185.235H364.538V139.84ZM334.519 139.84H338.077V185.235H334.519V139.84Z" fill="#010E10"/>
<path d="M378.931 139.84H382.489V185.235H378.931V139.84Z" fill="#010E10"/>
<path d="M388.684 143.212V139.84H416.05V143.212H404.146V185.235H400.588V143.212H388.684Z" fill="#010E10"/>
<path d="M424.278 185.235V181.863H446.727V185.235H424.278ZM424.278 143.212V139.84H446.727V143.212H424.278ZM424.278 162.019V158.647H445.434V162.019H424.278ZM422.402 139.84H425.96V185.235H422.402V139.84Z" fill="#010E10"/>
<path d="M464.66 163.575H468.606L484.069 185.235H479.669L464.66 163.575ZM456.961 139.84H460.519V185.235H456.961V139.84ZM458.837 143.018V139.84H467.312C470.245 139.84 472.855 140.359 475.141 141.397C477.47 142.434 479.303 143.926 480.64 145.871C481.977 147.817 482.645 150.195 482.645 153.005C482.645 155.772 481.977 158.149 480.64 160.138C479.303 162.127 477.47 163.64 475.141 164.678C472.855 165.672 470.245 166.169 467.312 166.169H458.837V162.992H467.312C469.598 162.992 471.625 162.624 473.394 161.889C475.205 161.111 476.607 159.987 477.599 158.517C478.591 157.004 479.087 155.166 479.087 153.005C479.087 150.843 478.57 149.027 477.534 147.557C476.542 146.087 475.162 144.963 473.394 144.185C471.625 143.407 469.598 143.018 467.312 143.018H458.837Z" fill="#010E10"/>
<path d="M505.693 143.212V139.84H533.059V143.212H521.155V185.235H517.597V143.212H505.693Z" fill="#010E10"/>
<path d="M541.287 185.235V181.863H563.736V185.235H541.287ZM541.287 143.212V139.84H563.736V143.212H541.287ZM541.287 162.019V158.647H562.442V162.019H541.287ZM539.411 139.84H542.969V185.235H539.411V139.84Z" fill="#010E10"/>
<path d="M575.846 185.235V181.863H598.296V185.235H575.846ZM575.846 143.212V139.84H598.296V143.212H575.846ZM575.846 162.019V158.647H597.002V162.019H575.846ZM573.97 139.84H577.528V185.235H573.97V139.84Z" fill="#010E10"/>
<path d="M604 143.212V139.84H631.367V143.212H619.463V185.235H615.904V143.212H604Z" fill="#010E10"/>
<path d="M639.594 162.213V158.841H670.131V162.213H639.594ZM667.737 139.84H671.36V185.235H667.737V139.84ZM637.718 139.84H641.276V185.235H637.718V139.84Z" fill="#010E10"/>
<path d="M687.112 178.491L690.476 179.788L683.36 196L680.966 195.157L687.112 178.491Z" fill="#010E10"/>
<path d="M723.518 160.852V158.776H730.57C732.338 158.776 733.956 158.495 735.422 157.933C736.889 157.371 738.053 156.528 738.916 155.404C739.778 154.237 740.21 152.767 740.21 150.994C740.21 148.487 739.326 146.541 737.557 145.158C735.832 143.731 733.503 143.018 730.57 143.018H724.294V182.057H731.217C733.503 182.057 735.508 181.668 737.234 180.89C738.959 180.112 740.296 178.988 741.245 177.518C742.194 176.005 742.668 174.124 742.668 171.876C742.668 170.276 742.366 168.871 741.762 167.661C741.159 166.407 740.318 165.369 739.239 164.548C738.161 163.683 736.932 163.035 735.552 162.602C734.215 162.17 732.77 161.954 731.217 161.954H723.518V159.879H731.476C733.33 159.879 735.142 160.138 736.91 160.657C738.679 161.133 740.253 161.867 741.633 162.862C743.056 163.856 744.178 165.132 744.997 166.688C745.86 168.201 746.291 169.995 746.291 172.07C746.291 175.054 745.644 177.518 744.35 179.463C743.056 181.409 741.266 182.857 738.98 183.808C736.738 184.759 734.15 185.235 731.217 185.235H720.736V139.84H730.57C733.287 139.84 735.616 140.251 737.557 141.072C739.541 141.894 741.072 143.126 742.151 144.769C743.229 146.368 743.768 148.379 743.768 150.8C743.768 153.005 743.207 154.864 742.086 156.377C741.008 157.847 739.498 158.971 737.557 159.749C735.616 160.484 733.373 160.852 730.829 160.852H723.518Z" fill="#010E10"/>
<path d="M757.108 185.235V181.863H779.558V185.235H757.108ZM757.108 143.212V139.84H779.558V143.212H757.108ZM757.108 162.019V158.647H778.264V162.019H757.108ZM755.232 139.84H758.791V185.235H755.232V139.84Z" fill="#010E10"/>
<path d="M785.263 143.212V139.84H812.629V143.212H800.725V185.235H797.167V143.212H785.263Z" fill="#010E10"/>
<path d="M816.41 143.212V139.84H843.777V143.212H831.873V185.235H828.314V143.212H816.41Z" fill="#010E10"/>
<path d="M852.004 185.235V181.863H874.454V185.235H852.004ZM852.004 143.212V139.84H874.454V143.212H852.004ZM852.004 162.019V158.647H873.16V162.019H852.004ZM850.128 139.84H853.686V185.235H850.128V139.84Z" fill="#010E10"/>
<path d="M892.386 163.575H896.333L911.795 185.235H907.396L892.386 163.575ZM884.687 139.84H888.246V185.235H884.687V139.84ZM886.564 143.018V139.84H895.039C897.972 139.84 900.581 140.359 902.867 141.397C905.196 142.434 907.029 143.926 908.366 145.871C909.703 147.817 910.372 150.195 910.372 153.005C910.372 155.772 909.703 158.149 908.366 160.138C907.029 162.127 905.196 163.64 902.867 164.678C900.581 165.672 897.972 166.169 895.039 166.169H886.564V162.992H895.039C897.325 162.992 899.352 162.624 901.12 161.889C902.932 161.111 904.333 159.987 905.325 158.517C906.317 157.004 906.814 155.166 906.814 153.005C906.814 150.843 906.296 149.027 905.261 147.557C904.269 146.087 902.889 144.963 901.12 144.185C899.352 143.407 897.325 143.018 895.039 143.018H886.564Z" fill="#010E10"/>
<path d="M937.948 139.84H941.506V185.235H937.948V139.84ZM939.954 143.212V139.84H948.558C951.405 139.84 953.928 140.381 956.127 141.461C958.37 142.542 960.139 144.077 961.433 146.066C962.726 148.055 963.373 150.454 963.373 153.264C963.373 156.031 962.726 158.43 961.433 160.462C960.139 162.494 958.37 164.051 956.127 165.132C953.928 166.169 951.405 166.688 948.558 166.688H939.954V163.316H948.558C951.879 163.316 954.575 162.451 956.645 160.722C958.715 158.992 959.75 156.507 959.75 153.264C959.75 149.978 958.715 147.492 956.645 145.806C954.575 144.077 951.879 143.212 948.558 143.212H939.954Z" fill="#010E10"/>
<path d="M979.385 163.575H983.331L998.793 185.235H994.394L979.385 163.575ZM971.686 139.84H975.244V185.235H971.686V139.84ZM973.562 143.018V139.84H982.037C984.97 139.84 987.579 140.359 989.865 141.397C992.194 142.434 994.028 143.926 995.365 145.871C996.702 147.817 997.37 150.195 997.37 153.005C997.37 155.772 996.702 158.149 995.365 160.138C994.028 162.127 992.194 163.64 989.865 164.678C987.579 165.672 984.97 166.169 982.037 166.169H973.562V162.992H982.037C984.323 162.992 986.35 162.624 988.119 161.889C989.93 161.111 991.332 159.987 992.324 158.517C993.316 157.004 993.812 155.166 993.812 153.005C993.812 150.843 993.294 149.027 992.259 147.557C991.267 146.087 989.887 144.963 988.119 144.185C986.35 143.407 984.323 143.018 982.037 143.018H973.562Z" fill="#010E10"/>
<path d="M1007.43 185.235V181.863H1029.88V185.235H1007.43ZM1007.43 143.212V139.84H1029.88V143.212H1007.43ZM1007.43 162.019V158.647H1028.58V162.019H1007.43ZM1005.55 139.84H1009.11V185.235H1005.55V139.84Z" fill="#010E10"/>
<path d="M1055.25 178.685L1071.23 139.84H1075.24L1055.25 186.986L1035.26 139.84H1039.27L1055.25 178.685Z" fill="#010E10"/>
<path d="M1081.11 139.84H1084.67V185.235H1081.11V139.84Z" fill="#010E10"/>
<path d="M1095.39 139.84H1098.95V181.863H1117.65V185.235H1095.39V139.84Z" fill="#010E10"/>
<path d="M1124.01 139.84H1127.57V181.863H1146.27V185.235H1124.01V139.84Z" fill="#010E10"/>
<path d="M1158.21 169.995L1159.38 166.623H1180.28L1181.44 169.995H1158.21ZM1169.73 146.325L1160.93 167.79L1160.54 168.569L1153.75 185.235H1149.74L1169.73 138.089L1189.72 185.235H1185.71L1178.98 168.828L1178.66 167.985L1169.73 146.325Z" fill="#010E10"/>
<path d="M1214.92 165.975V162.602H1235.04C1235.04 165.672 1234.56 168.612 1233.62 171.422C1232.67 174.189 1231.26 176.653 1229.41 178.815C1227.56 180.977 1225.31 182.684 1222.68 183.938C1220.05 185.192 1217.07 185.819 1213.75 185.819C1210.52 185.819 1207.52 185.257 1204.76 184.133C1202.04 182.965 1199.65 181.344 1197.58 179.269C1195.55 177.194 1193.98 174.729 1192.86 171.876C1191.74 169.023 1191.17 165.91 1191.17 162.538C1191.17 159.165 1191.74 156.053 1192.86 153.199C1193.98 150.346 1195.55 147.882 1197.58 145.806C1199.65 143.731 1202.04 142.132 1204.76 141.008C1207.52 139.84 1210.52 139.257 1213.75 139.257C1216.56 139.257 1219.1 139.646 1221.39 140.424C1223.72 141.202 1225.79 142.326 1227.6 143.796C1229.41 145.223 1230.96 146.952 1232.26 148.984L1229.67 151.254C1228.16 148.746 1226.05 146.714 1223.33 145.158C1220.61 143.602 1217.42 142.823 1213.75 142.823C1210.22 142.823 1207.03 143.666 1204.18 145.352C1201.33 147.039 1199.07 149.352 1197.39 152.291C1195.75 155.231 1194.93 158.647 1194.93 162.538C1194.93 166.385 1195.75 169.801 1197.39 172.784C1199.07 175.724 1201.31 178.037 1204.11 179.723C1206.96 181.409 1210.17 182.252 1213.75 182.252C1216.3 182.252 1218.58 181.82 1220.61 180.955C1222.64 180.09 1224.39 178.901 1225.85 177.388C1227.36 175.875 1228.57 174.146 1229.47 172.2C1230.38 170.255 1230.94 168.18 1231.16 165.975H1214.92Z" fill="#010E10"/>
<path d="M1245.55 185.235V181.863H1268V185.235H1245.55ZM1245.55 143.212V139.84H1268V143.212H1245.55ZM1245.55 162.019V158.647H1266.71V162.019H1245.55ZM1243.67 139.84H1247.23V185.235H1243.67V139.84Z" fill="#010E10"/>
<defs>
<filter id="filter0_d_23_41" x="0" y="0" width="248.602" height="272.382" filterUnits="userSpaceOnUse" color-interpolation-filters="sRGB">
<feFlood flood-opacity="0" result="BackgroundImageFix"/>
<feColorMatrix in="SourceAlpha" type="matrix" values="0 0 0 0 0 0 0 0 0 0 0 0 0 0 0 0 0 0 127 0" result="hardAlpha"/>
<feOffset dy="4"/>
<feGaussianBlur stdDeviation="2"/>
<feComposite in2="hardAlpha" operator="out"/>
<feColorMatrix type="matrix" values="0 0 0 0 0 0 0 0 0 0 0 0 0 0 0 0 0 0 0.25 0"/>
<feBlend mode="normal" in2="BackgroundImageFix" result="effect1_dropShadow_23_41"/>
<feBlend mode="normal" in="SourceGraphic" in2="effect1_dropShadow_23_41" result="shape"/>
</filter>
</defs>
</svg>
