<svg width="165" height="78" viewBox="0 0 165 78" fill="none" xmlns="http://www.w3.org/2000/svg">
<path d="M123.749 32.7015C126.177 31.3261 133.027 32.0057 133.25 32.899C133.25 33.3657 132.55 33.1323 132.084 33.8323C131.158 35.2215 134.728 35.2323 136.517 34.9989C137.917 34.7656 138.15 33.4434 138.15 32.4323C137.917 31.7324 137.73 31.2656 134.184 29.399C130.637 27.5324 124.306 29.0879 121.584 30.099C120.806 30.5656 119.251 31.8723 119.251 33.3656C119.251 35.2322 120.884 36.6321 123.451 38.0321C124.438 38.5709 125.07 39.1673 125.459 39.7018C126.044 40.505 125.616 41.4061 124.623 41.3576C123.29 41.2923 121.202 40.8953 119.251 40.3653C117.449 39.8762 118.006 38.3432 118.551 37.3321C115.376 36.78 114.473 38.2349 114.406 39.6595C114.362 40.5864 114.962 41.3943 115.716 41.9356C120.008 45.0176 123.686 45.165 126.266 44.3706C128.675 43.6288 130.528 41.023 129.303 38.8196C127.933 36.3564 124.567 34.3998 123.639 33.2032C123.509 33.0355 123.565 32.8061 123.749 32.7015Z" fill="white" fill-opacity="0.2"/>
<path d="M32.4533 36.3989C33.5422 36.9434 35.9999 36.8189 37.1198 31.9658C35.0199 34.1434 32.8324 34.4713 37.1198 27.0658C39.4878 22.9757 42.6999 19.8786 45.565 17.7288C49.5248 14.7576 54.4506 16.5893 53.0098 21.3255C51.643 25.8189 48.2892 30.8277 45.9863 33.3656V23.2012C45.9863 22.5193 45.8815 21.8101 45.4523 21.2802C44.6328 20.2684 43.7336 20.5697 43.05 21.1845C42.4323 21.7399 42.2475 22.6037 42.2458 23.4344C42.23 31.2236 42.7197 39.2619 42.7197 41.7654C42.7197 44.0987 41.5531 52.0318 44.5863 54.1317C45.7529 53.5095 48.1329 51.985 47.3862 51.7984C46.6396 51.6117 46.2974 42.5431 46.2196 38.0321C50.4972 39.2765 59.8925 41.9053 63.2524 42.4653C67.4523 43.1653 67.2189 35.4655 66.7523 37.0988C66.2856 38.7321 64.419 38.4988 62.0858 38.4988C59.7525 38.4988 49.2528 34.7656 49.9528 34.5322C50.5128 34.3456 53.9194 28.8546 55.5526 26.1325C56.0704 25.2493 56.6692 23.2905 57.0157 20.9872C58.0775 13.9296 52.7307 11.665 45.9863 13.9996C41.1331 15.6796 35.2532 23.8771 32.92 27.7659C30.1201 33.3657 31.4422 35.8545 32.4533 36.3989Z" fill="white" fill-opacity="0.2"/>
<path d="M86.4003 14.7776C86.9169 15.8799 88.9222 17.3064 92.8104 14.1936C89.8125 14.5997 87.8931 13.5004 95.8489 10.3495C100.243 8.60924 104.683 8.17148 108.264 8.26167C113.213 8.38631 115.942 12.8778 111.874 15.7C108.016 18.3775 102.279 20.2271 98.898 20.79L105.201 12.816C105.624 12.2811 105.982 11.6597 105.974 10.9779C105.958 9.67585 105.066 9.35466 104.148 9.41301C103.319 9.46572 102.639 10.0288 102.122 10.6794C97.2795 16.7803 92.679 23.39 91.1265 25.354C89.6796 27.1845 83.8448 32.6846 84.9222 36.213C86.2233 36.4483 89.0357 36.7282 88.5657 36.1188C88.0957 35.5093 93.4509 28.1827 96.1872 24.5956C98.7714 28.2245 104.512 36.1131 106.8 38.6359C109.661 41.7895 114.253 35.6043 112.874 36.5963C111.495 37.5882 110.175 36.2476 108.345 34.8007C106.514 33.3538 100.592 23.914 101.286 24.165C101.841 24.3658 107.919 22.1706 110.888 21.0479C111.842 20.6761 113.527 19.5108 115.227 17.9187C120.436 13.0404 117.646 7.9482 110.907 5.59733C106.058 3.90569 96.362 6.69046 92.12 8.2943C86.4508 10.9511 85.9447 13.7235 86.4003 14.7776Z" fill="white" fill-opacity="0.2"/>
<path d="M77.952 10.2664C76.272 9.70644 75.8521 10.4997 75.8521 10.9664L72.8188 11.6663C70.3921 12.2262 67.4523 14.8551 66.2856 16.0995C62.9932 20.4672 63.1115 22.185 66.7522 24.7326C65.7412 25.0437 63.7657 26.7392 63.9523 31.0324C64.139 35.3256 69.1633 34.9989 71.6521 34.299C74.0632 33.0545 79.1186 29.8191 80.0518 26.8325C80.9851 23.8459 80.4407 22.4771 80.0518 22.166H78.8853C77.7188 23.566 71.6521 32.899 68.8522 31.0324C66.6122 29.5391 67.9189 27.6103 68.8522 26.8325L75.3853 22.166C78.1852 18.9928 75.9297 18.6661 74.452 18.8994C72.5854 20.2216 68.6189 22.586 67.6856 21.466C66.7523 20.346 70.4078 16.955 72.3522 15.3995C73.2077 15.8662 76.3187 17.7328 78.8853 13.7662C79.2742 12.833 79.6319 10.8264 77.952 10.2664Z" fill="white" fill-opacity="0.2"/>
<path d="M77.0188 3.26657L73.2856 5.36651C74.4522 7.93309 67.6857 38.9655 68.1524 40.1321C68.619 41.2987 71.8856 40.1321 70.9523 40.1321C70.2057 40.1321 73.9078 20.5327 75.8521 10.733L77.0188 3.26657Z" fill="white" fill-opacity="0.2"/>
<path d="M133.25 13.766C133.768 14.5428 132.783 16.979 129.983 19.1327C126.95 21.4658 125.55 22.3994 123.45 21.4658C122.75 18.8995 124.617 17.7327 126.95 15.6327C129.277 13.5384 131.85 11.6662 133.25 13.766Z" fill="white" fill-opacity="0.2"/>
<path d="M121.883 30.8349C124.311 29.4596 131.161 30.1391 131.384 31.0324C131.384 31.4991 130.684 31.2657 130.217 31.9657C129.291 33.3549 132.862 33.3657 134.651 33.1324C136.051 32.899 136.284 31.5768 136.284 30.5658C136.051 29.8658 135.864 29.399 132.317 27.5324C128.771 25.6658 122.44 27.2213 119.718 28.2324C118.94 28.6991 117.384 30.0057 117.384 31.499C117.384 33.3656 119.018 34.7655 121.584 36.1655C122.572 36.7043 123.204 37.3007 123.593 37.8352C124.178 38.6384 123.749 39.5396 122.757 39.491C121.424 39.4257 119.336 39.0287 117.384 38.4988C115.583 38.0096 116.14 36.4766 116.685 35.4655C113.51 34.9135 112.606 36.3683 112.54 37.7929C112.496 38.7199 113.096 39.5278 113.849 40.069C118.142 43.151 121.819 43.2984 124.4 42.504C126.809 41.7622 128.662 39.1564 127.437 36.953C126.067 34.4899 122.701 32.5333 121.772 31.3366C121.642 31.1689 121.698 30.9395 121.883 30.8349Z" fill="white" fill-opacity="0.6"/>
<path d="M30.5871 34.5324C31.676 35.0768 34.1337 34.9524 35.2536 30.0992C33.1537 32.2769 30.9662 32.6047 35.2536 25.1992C37.6216 21.1091 40.8337 18.012 43.6988 15.8622C47.6586 12.891 52.5844 14.7227 51.1436 19.4589C49.7767 23.9523 46.423 28.9611 44.1201 31.499V21.3346C44.1201 20.6528 44.0153 19.9435 43.5861 19.4137C42.7666 18.4018 41.8674 18.7032 41.1837 19.3179C40.5661 19.8734 40.3813 20.7371 40.3796 21.5678C40.3638 29.357 40.8535 37.3953 40.8535 39.8989C40.8535 42.2321 39.6869 50.1652 42.7201 52.2651C43.8867 51.6429 46.2667 50.1185 45.52 49.9318C44.7734 49.7451 44.4312 40.6765 44.3534 36.1656C48.631 37.41 58.0263 40.0388 61.3862 40.5987C65.5861 41.2987 65.3527 33.599 64.8861 35.2323C64.4194 36.8655 62.5528 36.6322 60.2196 36.6322C57.8863 36.6322 47.3866 32.899 48.0866 32.6657C48.6466 32.479 52.0531 26.9881 53.6864 24.2659C54.2042 23.3827 54.803 21.4239 55.1495 19.1206C56.2112 12.063 50.8645 9.79845 44.1201 12.1331C39.2669 13.813 33.387 22.0105 31.0538 25.8993C28.2538 31.4991 29.576 33.9879 30.5871 34.5324Z" fill="white" fill-opacity="0.6"/>
<path d="M84.5341 12.911C85.0507 14.0133 87.056 15.4398 90.9441 12.327C87.9463 12.7332 86.0269 11.6338 93.9827 8.48295C98.3768 6.74267 102.817 6.3049 106.398 6.39509C111.347 6.51973 114.075 11.0113 110.008 13.8334C106.149 16.5109 100.412 18.3605 97.0318 18.9234L103.335 10.9494C103.758 10.4145 104.115 9.79314 104.107 9.11131C104.092 7.80927 103.2 7.48809 102.282 7.54643C101.453 7.59915 100.772 8.16218 100.256 8.81282C95.4133 14.9137 90.8128 21.5234 89.2602 23.4875C87.8133 25.3179 81.9786 30.818 83.056 34.3464C84.3571 34.5817 87.1695 34.8616 86.6995 34.2522C86.2295 33.6427 91.5847 26.3162 94.321 22.729C96.9052 26.358 102.646 34.2465 104.934 36.7693C107.795 39.9229 112.387 33.7377 111.008 34.7297C109.629 35.7216 108.309 34.381 106.479 32.9341C104.648 31.4872 98.7263 22.0474 99.4201 22.2984C99.9752 22.4992 106.053 20.3041 109.022 19.1814C109.976 18.8096 111.66 17.6442 113.361 16.0522C118.57 11.1738 115.78 6.08162 109.041 3.73076C104.192 2.03911 94.4957 4.82388 90.2538 6.42772C84.5846 9.08452 84.0785 11.8569 84.5341 12.911Z" fill="white" fill-opacity="0.6"/>
<path d="M76.0858 8.39984C74.4058 7.83986 73.9859 8.63317 73.9859 9.09982L70.9526 9.79974C68.5259 10.3597 65.586 12.9885 64.4194 14.2329C61.127 18.6006 61.2453 20.3185 64.886 22.866C63.8749 23.1771 61.8995 24.8726 62.0861 29.1658C62.2728 33.459 67.2971 33.1324 69.7859 32.4324C72.1969 31.188 77.2524 27.9525 78.1856 24.9659C79.1188 21.9794 78.5745 20.6105 78.1856 20.2994H77.0191C75.8526 21.6994 69.7859 31.0324 66.986 29.1658C64.746 27.6725 66.0527 25.7437 66.986 24.9659L73.5191 20.2994C76.319 17.1262 74.0635 16.7995 72.5858 17.0328C70.7192 18.355 66.7527 20.7194 65.8194 19.5994C64.8861 18.4795 68.5416 15.0885 70.486 13.533C71.3415 13.9996 74.4525 15.8662 77.0191 11.8997C77.408 10.9664 77.7657 8.95983 76.0858 8.39984Z" fill="white" fill-opacity="0.6"/>
<path d="M75.1526 1.39999L71.4194 3.49993C72.586 6.06652 65.8195 37.0989 66.2861 38.2655C66.7528 39.4322 70.0194 38.2655 69.0861 38.2655C68.3394 38.2655 72.0416 18.6661 73.9859 8.86643L75.1526 1.39999Z" fill="white" fill-opacity="0.6"/>
<path d="M131.384 11.8994C131.902 12.6762 130.917 15.1124 128.117 17.2661C125.084 19.5993 123.684 20.5328 121.584 19.5993C120.884 17.0329 122.751 15.8661 125.084 13.7661C127.41 11.6718 129.984 9.79965 131.384 11.8994Z" fill="white" fill-opacity="0.6"/>
<path d="M120.483 29.4349C122.911 28.0596 129.761 28.7391 129.984 29.6324C129.984 30.0991 129.285 29.8657 128.818 30.5657C127.892 31.9549 131.462 31.9657 133.251 31.7324C134.651 31.499 134.884 30.1768 134.884 29.1658C134.651 28.4658 134.464 27.999 130.918 26.1324C127.371 24.2658 121.04 25.8213 118.318 26.8324C117.54 27.2991 115.985 28.6057 115.985 30.099C115.985 31.9656 117.618 33.3655 120.185 34.7655C121.173 35.3043 121.804 35.9007 122.193 36.4352C122.778 37.2384 122.35 38.1396 121.357 38.091C120.024 38.0257 117.936 37.6287 115.985 37.0988C114.184 36.6096 114.741 35.0766 115.285 34.0655C112.111 33.5135 111.207 34.9683 111.14 36.3929C111.096 37.3199 111.696 38.1278 112.45 38.669C116.742 41.751 120.42 41.8984 123 41.104C125.409 40.3622 127.262 37.7564 126.037 35.553C124.668 33.0899 121.301 31.1333 120.373 29.9366C120.243 29.7689 120.299 29.5395 120.483 29.4349Z" fill="white"/>
<path d="M29.1876 33.1324C30.2764 33.6768 32.7341 33.5524 33.8541 28.6992C31.7542 30.8769 29.5667 31.2047 33.8541 23.7992C36.2221 19.7091 39.4342 16.612 42.2993 14.4622C46.259 11.491 51.1848 13.3227 49.7441 18.0589C48.3772 22.5523 45.0234 27.5611 42.7205 30.099V19.9346C42.7205 19.2528 42.6157 18.5435 42.1866 18.0137C41.367 17.0018 40.4678 17.3032 39.7842 17.9179C39.1665 18.4734 38.9817 19.3371 38.9801 20.1678C38.9643 27.957 39.4539 35.9953 39.4539 38.4988C39.4539 40.8321 38.2873 48.7652 41.3206 50.8651C42.4872 50.2429 44.8671 48.7184 44.1205 48.5318C43.3738 48.3451 43.0316 39.2765 42.9538 34.7656C47.2315 36.01 56.6267 38.6388 59.9866 39.1987C64.1865 39.8987 63.9532 32.199 63.4865 33.8323C63.0199 35.4655 61.1533 35.2322 58.82 35.2322C56.4868 35.2322 45.9871 31.499 46.6871 31.2657C47.247 31.079 50.6536 25.5881 52.2869 22.8659C52.8046 21.9827 53.4034 20.0239 53.7499 17.7206C54.8117 10.663 49.4649 8.39845 42.7205 10.7331C37.8673 12.413 31.9875 20.6105 29.6542 24.4993C26.8543 30.0991 28.1765 32.5879 29.1876 33.1324Z" fill="white"/>
<path d="M83.1346 11.511C83.6512 12.6134 85.6564 14.0398 89.5446 10.927C86.5468 11.3332 84.6274 10.2338 92.5832 7.08295C96.9773 5.34267 101.418 4.90491 104.999 4.99509C109.948 5.11973 112.676 9.61127 108.609 12.4334C104.75 15.1109 99.0128 16.9605 95.6323 17.5234L101.935 9.54944C102.358 9.0145 102.716 8.39315 102.708 7.71131C102.692 6.40928 101.8 6.08809 100.883 6.14643C100.053 6.19915 99.3729 6.76219 98.8564 7.41282C94.0138 13.5137 89.4132 20.1234 87.8607 22.0875C86.4138 23.9179 80.5791 29.418 81.6564 32.9464C82.9575 33.1817 85.7699 33.4616 85.2999 32.8522C84.83 32.2427 90.1851 24.9162 92.9215 21.3291C95.5056 24.958 101.246 32.8465 103.535 35.3693C106.395 38.5229 110.987 32.3377 109.608 33.3297C108.229 34.3216 106.91 32.981 105.079 31.5341C103.249 30.0872 97.3268 20.6474 98.0206 20.8984C98.5756 21.0992 104.653 18.9041 107.623 17.7814C108.576 17.4096 110.261 16.2442 111.961 14.6522C117.171 9.77383 114.38 4.68163 107.642 2.33076C102.792 0.639115 93.0962 3.42389 88.8542 5.02773C83.1851 7.68452 82.679 10.4569 83.1346 11.511Z" fill="white"/>
<path d="M74.6862 6.99985C73.0063 6.43986 72.5863 7.23317 72.5863 7.69983L69.553 8.39974C67.1264 8.95967 64.1865 11.5885 63.0199 12.8329C59.7275 17.2006 59.8457 18.9185 63.4865 21.466C62.4754 21.7771 60.4999 23.4726 60.6866 27.7658C60.8732 32.059 65.8975 31.7324 68.3863 31.0324C70.7974 29.788 75.8529 26.5525 76.7861 23.5659C77.7193 20.5794 77.1749 19.2105 76.7861 18.8994H75.6196C74.453 20.2994 68.3863 29.6324 65.5864 27.7658C63.3465 26.2725 64.6531 24.3437 65.5864 23.5659L72.1196 18.8994C74.9195 15.7262 72.664 15.3995 71.1862 15.6329C69.3197 16.955 65.3532 19.3194 64.4199 18.1994C63.4866 17.0795 67.142 13.6885 69.0864 12.133C69.9419 12.5996 73.053 14.4662 75.6196 10.4997C76.0084 9.56639 76.3662 7.55983 74.6862 6.99985Z" fill="white"/>
<path d="M73.753 0L70.0198 2.09994C71.1865 4.66652 64.4199 35.6989 64.8866 36.8655C65.3532 38.0322 68.6199 36.8655 67.6865 36.8655C66.9399 36.8655 70.642 17.2661 72.5864 7.46644L73.753 0Z" fill="white"/>
<path d="M129.984 10.4994C130.502 11.2762 129.518 13.7124 126.718 15.8661C123.684 18.1993 122.285 19.1328 120.184 18.1993C119.485 15.6329 121.351 14.4661 123.684 12.3661C126.011 10.2718 128.584 8.39965 129.984 10.4994Z" fill="white"/>
<path d="M16.8277 63.1194C16.1644 63.1194 15.5295 63.0264 14.9228 62.8403C14.3162 62.6462 13.8349 62.3995 13.479 62.1002L14.025 60.8748C14.3647 61.1417 14.7853 61.3642 15.2868 61.5421C15.7883 61.7201 16.3019 61.809 16.8277 61.809C17.2726 61.809 17.6325 61.7605 17.9075 61.6634C18.1826 61.5664 18.3848 61.437 18.5142 61.2752C18.6436 61.1053 18.7083 60.9152 18.7083 60.7049C18.7083 60.4461 18.6153 60.2398 18.4293 60.0862C18.2432 59.9244 18.0006 59.799 17.7013 59.71C17.4101 59.613 17.0825 59.524 16.7185 59.4431C16.3626 59.3622 16.0027 59.2692 15.6387 59.164C15.2828 59.0508 14.9552 58.9092 14.6559 58.7394C14.3647 58.5614 14.1261 58.3269 13.9401 58.0357C13.754 57.7445 13.661 57.3724 13.661 56.9194C13.661 56.4584 13.7823 56.0378 14.025 55.6576C14.2757 55.2694 14.6519 54.962 15.1534 54.7355C15.6629 54.5009 16.306 54.3837 17.0825 54.3837C17.5921 54.3837 18.0976 54.4484 18.5991 54.5778C19.1006 54.7072 19.5374 54.8932 19.9095 55.1359L19.412 56.3613C19.0319 56.1348 18.6396 55.969 18.2351 55.8639C17.8307 55.7506 17.4424 55.694 17.0704 55.694C16.6336 55.694 16.2777 55.7466 16.0027 55.8517C15.7357 55.9569 15.5376 56.0944 15.4082 56.2643C15.2868 56.4341 15.2262 56.6283 15.2262 56.8466C15.2262 57.1055 15.3151 57.3158 15.4931 57.4776C15.6791 57.6312 15.9177 57.7526 16.2089 57.8416C16.5082 57.9305 16.8398 58.0195 17.2038 58.1085C17.5678 58.1894 17.9278 58.2824 18.2837 58.3875C18.6477 58.4927 18.9752 58.6302 19.2664 58.8001C19.5657 58.9699 19.8043 59.2004 19.9823 59.4916C20.1683 59.7828 20.2613 60.1509 20.2613 60.5957C20.2613 61.0487 20.136 61.4693 19.8852 61.8576C19.6426 62.2377 19.2664 62.5451 18.7569 62.7797C18.2473 63.0061 17.6042 63.1194 16.8277 63.1194Z" fill="white"/>
<path d="M23.2813 58.0357H27.5036V59.3339H23.2813V58.0357ZM23.4026 61.6756H28.1952V62.9981H21.8254V54.505H28.0253V55.8275H23.4026V61.6756Z" fill="white"/>
<path d="M28.7523 62.9981L32.5742 54.505H34.1272L37.9612 62.9981H36.3112L33.0231 55.3422H33.654L30.3781 62.9981H28.7523ZM30.5116 61.0325L30.9363 59.795H35.5225L35.9472 61.0325H30.5116Z" fill="white"/>
<path d="M41.6742 63.1194C41.0109 63.1194 40.376 63.0264 39.7693 62.8403C39.1627 62.6462 38.6814 62.3995 38.3255 62.1002L38.8715 60.8748C39.2112 61.1417 39.6318 61.3642 40.1333 61.5421C40.6348 61.7201 41.1485 61.809 41.6742 61.809C42.1191 61.809 42.479 61.7605 42.754 61.6634C43.0291 61.5664 43.2313 61.437 43.3607 61.2752C43.4901 61.1053 43.5548 60.9152 43.5548 60.7049C43.5548 60.4461 43.4618 60.2398 43.2758 60.0862C43.0897 59.9244 42.8471 59.799 42.5478 59.71C42.2566 59.613 41.929 59.524 41.565 59.4431C41.2091 59.3622 40.8492 59.2692 40.4852 59.164C40.1293 59.0508 39.8017 58.9092 39.5024 58.7394C39.2112 58.5614 38.9726 58.3269 38.7866 58.0357C38.6005 57.7445 38.5075 57.3724 38.5075 56.9194C38.5075 56.4584 38.6288 56.0378 38.8715 55.6576C39.1222 55.2694 39.4984 54.962 39.9999 54.7355C40.5094 54.5009 41.1525 54.3837 41.929 54.3837C42.4386 54.3837 42.9441 54.4484 43.4456 54.5778C43.9471 54.7072 44.3839 54.8932 44.756 55.1359L44.2585 56.3613C43.8784 56.1348 43.4861 55.969 43.0816 55.8639C42.6772 55.7506 42.2889 55.694 41.9169 55.694C41.4801 55.694 41.1242 55.7466 40.8492 55.8517C40.5822 55.9569 40.3841 56.0944 40.2547 56.2643C40.1333 56.4341 40.0727 56.6283 40.0727 56.8466C40.0727 57.1055 40.1616 57.3158 40.3396 57.4776C40.5256 57.6312 40.7642 57.7526 41.0554 57.8416C41.3547 57.9305 41.6863 58.0195 42.0503 58.1085C42.4143 58.1894 42.7743 58.2824 43.1302 58.3875C43.4942 58.4927 43.8217 58.6302 44.1129 58.8001C44.4122 58.9699 44.6508 59.2004 44.8288 59.4916C45.0148 59.7828 45.1078 60.1509 45.1078 60.5957C45.1078 61.0487 44.9825 61.4693 44.7317 61.8576C44.4891 62.2377 44.1129 62.5451 43.6034 62.7797C43.0938 63.0061 42.4507 63.1194 41.6742 63.1194Z" fill="white"/>
<path d="M46.6719 62.9981V54.505H48.2491V62.9981H46.6719Z" fill="white"/>
<path d="M50.5463 62.9981V54.505H54.259C55.1811 54.505 55.99 54.6829 56.6856 55.0388C57.3812 55.3947 57.9232 55.8881 58.3114 56.5191C58.6997 57.15 58.8938 57.8941 58.8938 58.7515C58.8938 59.6008 58.6997 60.345 58.3114 60.984C57.9232 61.6149 57.3812 62.1083 56.6856 62.4642C55.99 62.8201 55.1811 62.9981 54.259 62.9981H50.5463ZM52.1236 61.6634H54.1862C54.8252 61.6634 55.3753 61.5421 55.8363 61.2994C56.3055 61.0568 56.6654 60.7171 56.9161 60.2803C57.175 59.8435 57.3044 59.3339 57.3044 58.7515C57.3044 58.1611 57.175 57.6515 56.9161 57.2228C56.6654 56.786 56.3055 56.4463 55.8363 56.2036C55.3753 55.9609 54.8252 55.8396 54.1862 55.8396H52.1236V61.6634Z" fill="white"/>
<path d="M62.0262 58.0357H66.2485V59.3339H62.0262V58.0357ZM62.1475 61.6756H66.9401V62.9981H60.5703V54.505H66.7702V55.8275H62.1475V61.6756Z" fill="white"/>
<path d="M70.8504 62.9981L74.6723 54.505H76.2253L80.0593 62.9981H78.4092L75.1212 55.3422H75.7521L72.4762 62.9981H70.8504ZM72.6097 61.0325L73.0343 59.795H77.6206L78.0452 61.0325H72.6097Z" fill="white"/>
<path d="M81.1394 62.9981V54.505H84.6337C85.386 54.505 86.029 54.6263 86.5629 54.869C87.1048 55.1116 87.5214 55.4594 87.8126 55.9124C88.1037 56.3654 88.2493 56.9033 88.2493 57.5261C88.2493 58.1489 88.1037 58.6868 87.8126 59.1398C87.5214 59.5927 87.1048 59.9406 86.5629 60.1832C86.029 60.4259 85.386 60.5472 84.6337 60.5472H82.013L82.7167 59.8071V62.9981H81.1394ZM82.7167 59.977L82.013 59.2126H84.5609C85.2565 59.2126 85.7783 59.067 86.1261 58.7758C86.482 58.4765 86.6599 58.0599 86.6599 57.5261C86.6599 56.9842 86.482 56.5676 86.1261 56.2764C85.7783 55.9852 85.2565 55.8396 84.5609 55.8396H82.013L82.7167 55.0631V59.977Z" fill="white"/>
<path d="M88.1967 62.9981L92.0186 54.505H93.5716L97.4056 62.9981H95.7556L92.4675 55.3422H93.0984L89.8225 62.9981H88.1967ZM89.956 61.0325L90.3807 59.795H94.9669L95.3916 61.0325H89.956Z" fill="white"/>
<path d="M98.4858 62.9981V54.505H101.98C102.732 54.505 103.375 54.6263 103.909 54.869C104.451 55.1116 104.868 55.4594 105.159 55.9124C105.45 56.3654 105.596 56.9033 105.596 57.5261C105.596 58.1489 105.45 58.6868 105.159 59.1398C104.868 59.5847 104.451 59.9284 103.909 60.1711C103.375 60.4056 102.732 60.5229 101.98 60.5229H99.3593L100.063 59.8071V62.9981H98.4858ZM104.043 62.9981L101.895 59.9163H103.582L105.741 62.9981H104.043ZM100.063 59.977L99.3593 59.2247H101.907C102.603 59.2247 103.125 59.0751 103.472 58.7758C103.828 58.4765 104.006 58.0599 104.006 57.5261C104.006 56.9842 103.828 56.5676 103.472 56.2764C103.125 55.9852 102.603 55.8396 101.907 55.8396H99.3593L100.063 55.0631V59.977Z" fill="white"/>
<path d="M108.965 62.9981V55.8396H106.15V54.505H113.357V55.8396H110.542V62.9981H108.965Z" fill="white"/>
<path d="M114.541 62.9981V54.505H115.839L119.552 60.7049H118.872L122.524 54.505H123.822L123.834 62.9981H122.342L122.33 56.8466H122.645L119.539 62.0274H118.836L115.681 56.8466H116.045V62.9981H114.541Z" fill="white"/>
<path d="M127.584 58.0357H131.807V59.3339H127.584V58.0357ZM127.706 61.6756H132.498V62.9981H126.129V54.505H132.328V55.8275H127.706V61.6756Z" fill="white"/>
<path d="M134.257 62.9981V54.505H135.555L140.881 61.0446H140.238V54.505H141.803V62.9981H140.505L135.179 56.4584H135.822V62.9981H134.257Z" fill="white"/>
<path d="M145.802 62.9981V55.8396H142.987V54.505H150.194V55.8396H147.379V62.9981H145.802Z" fill="white"/>
<path d="M0 75.5977V67.1046H3.04537C3.75717 67.1046 4.36787 67.2178 4.87745 67.4443C5.38703 67.6708 5.77933 67.9984 6.05435 68.4271C6.32936 68.8477 6.46687 69.3613 6.46687 69.968C6.46687 70.5584 6.32936 71.068 6.05435 71.4967C5.77933 71.9173 5.38703 72.2449 4.87745 72.4795C4.36787 72.706 3.75717 72.8192 3.04537 72.8192H0.339723L0.618781 72.528V75.5977H0ZM5.89662 75.5977L3.68842 72.5159H4.39213L6.60033 75.5977H5.89662ZM0.618781 72.5644L0.339723 72.2732H3.04537C3.95939 72.2732 4.65097 72.071 5.12011 71.6666C5.59734 71.2622 5.83595 70.696 5.83595 69.968C5.83595 69.2319 5.59734 68.6657 5.12011 68.2694C4.65097 67.8649 3.95939 67.6627 3.04537 67.6627H0.339723L0.618781 67.3594V72.5644Z" fill="white"/>
<path d="M11.1105 75.6462C10.4715 75.6462 9.90527 75.5087 9.41186 75.2337C8.92654 74.9587 8.54233 74.5785 8.25923 74.0932C7.98422 73.6079 7.84671 73.0538 7.84671 72.431C7.84671 71.8001 7.97613 71.246 8.23496 70.7688C8.50189 70.2834 8.86588 69.9033 9.32693 69.6283C9.78798 69.3532 10.3057 69.2157 10.8799 69.2157C11.4542 69.2157 11.9679 69.3492 12.4208 69.6161C12.8819 69.883 13.2418 70.2592 13.5007 70.7445C13.7676 71.2217 13.9011 71.7758 13.9011 72.4067C13.9011 72.431 13.897 72.4593 13.8889 72.4916C13.8889 72.5159 13.8889 72.5442 13.8889 72.5766H8.29563V72.1034H13.5613L13.3187 72.3339C13.3268 71.8405 13.2216 71.3997 13.0032 71.0114C12.7929 70.6151 12.5058 70.3077 12.1418 70.0893C11.7778 69.8628 11.3572 69.7496 10.8799 69.7496C10.4108 69.7496 9.9902 69.8628 9.61812 70.0893C9.25413 70.3077 8.96699 70.6151 8.75668 71.0114C8.54638 71.3997 8.44122 71.8445 8.44122 72.346V72.4552C8.44122 72.9729 8.55446 73.434 8.78095 73.8384C9.01552 74.2347 9.33502 74.5461 9.73945 74.7726C10.1439 74.991 10.6049 75.1002 11.1226 75.1002C11.527 75.1002 11.9032 75.0274 12.251 74.8818C12.6069 74.7362 12.9062 74.5138 13.1488 74.2145L13.5007 74.6149C13.2257 74.9546 12.8778 75.2135 12.4572 75.3914C12.0447 75.5613 11.5958 75.6462 11.1105 75.6462Z" fill="white"/>
<path d="M15.7778 75.5977V66.595H16.3844V75.5977H15.7778Z" fill="white"/>
<path d="M22.9331 75.5977V74.1538L22.9088 73.9355V71.5574C22.9088 70.9669 22.7471 70.518 22.4235 70.2106C22.1081 69.9033 21.643 69.7496 21.0282 69.7496C20.5914 69.7496 20.183 69.8264 19.8028 69.9801C19.4307 70.1257 19.1112 70.3158 18.8443 70.5504L18.541 70.1136C18.8564 69.8305 19.2366 69.6121 19.6815 69.4584C20.1263 69.2966 20.5914 69.2157 21.0768 69.2157C21.8614 69.2157 22.464 69.4139 22.8846 69.8102C23.3052 70.2066 23.5155 70.7971 23.5155 71.5817V75.5977H22.9331ZM20.6521 75.6462C20.183 75.6462 19.7745 75.5734 19.4267 75.4278C19.087 75.2741 18.8241 75.0598 18.638 74.7848C18.4601 74.5097 18.3711 74.1943 18.3711 73.8384C18.3711 73.5148 18.4439 73.2237 18.5895 72.9648C18.7432 72.6979 18.9939 72.4836 19.3417 72.3218C19.6896 72.1519 20.1546 72.067 20.737 72.067H23.0666V72.5402H20.7492C20.094 72.5402 19.6329 72.6615 19.366 72.9042C19.1072 73.1468 18.9778 73.4501 18.9778 73.8141C18.9778 74.2186 19.1314 74.5421 19.4388 74.7848C19.7462 75.0274 20.1789 75.1487 20.737 75.1487C21.2709 75.1487 21.7198 75.0274 22.0838 74.7848C22.4559 74.5421 22.7309 74.1902 22.9088 73.7292L23.0787 74.1417C22.9088 74.6028 22.6176 74.9708 22.2051 75.2458C21.8007 75.5127 21.283 75.6462 20.6521 75.6462Z" fill="white"/>
<path d="M25.0079 75.5977L27.6408 72.1762L27.6286 72.4674L25.1414 69.2643H25.833L28.0048 72.067H27.75L29.9096 69.2643H30.5891L28.0776 72.5038L28.0897 72.1762L30.759 75.5977H30.0431L27.75 72.613L27.9805 72.6372L25.6995 75.5977H25.0079Z" fill="white"/>
<path d="M32.3066 75.5977V69.2643H32.9132V75.5977H32.3066ZM32.6099 67.7234C32.4724 67.7234 32.3551 67.6748 32.258 67.5778C32.161 67.4807 32.1124 67.3675 32.1124 67.2381C32.1124 67.1006 32.161 66.9833 32.258 66.8862C32.3551 66.7891 32.4724 66.7406 32.6099 66.7406C32.7555 66.7406 32.8728 66.7891 32.9618 66.8862C33.0588 66.9752 33.1073 67.0884 33.1073 67.2259C33.1073 67.3634 33.0588 67.4807 32.9618 67.5778C32.8728 67.6748 32.7555 67.7234 32.6099 67.7234Z" fill="white"/>
<path d="M38.564 69.2157C39.0817 69.2157 39.5306 69.3168 39.9108 69.5191C40.2991 69.7132 40.5983 70.0125 40.8086 70.4169C41.027 70.8132 41.1362 71.3066 41.1362 71.8971V75.5977H40.5296V71.9456C40.5296 71.2338 40.3476 70.6919 39.9836 70.3198C39.6277 69.9478 39.1262 69.7617 38.4791 69.7617C37.9857 69.7617 37.557 69.8628 37.193 70.065C36.829 70.2673 36.55 70.5504 36.3559 70.9143C36.1698 71.2783 36.0768 71.7151 36.0768 72.2247V75.5977H35.4701V69.2643H36.0525V71.0235L35.9676 70.8294C36.1617 70.3279 36.4812 69.9356 36.9261 69.6525C37.371 69.3613 37.917 69.2157 38.564 69.2157Z" fill="white"/>
<path d="M46.2667 78C45.6924 78 45.1464 77.911 44.6287 77.7331C44.1111 77.5551 43.6904 77.3084 43.3669 76.993L43.6945 76.5319C44.0099 76.8231 44.3861 77.0496 44.8229 77.2114C45.2677 77.3731 45.745 77.454 46.2545 77.454C47.1039 77.454 47.7267 77.2558 48.123 76.8595C48.5275 76.4632 48.7297 75.8403 48.7297 74.991V73.2317L48.851 72.2854L48.7539 71.339V69.2643H49.3363V74.9182C49.3363 75.9778 49.0775 76.7543 48.5598 77.2478C48.0502 77.7493 47.2858 78 46.2667 78ZM46.0968 75.3671C45.4983 75.3671 44.9604 75.2377 44.4831 74.9789C44.014 74.712 43.6379 74.348 43.3548 73.8869C43.0798 73.4178 42.9422 72.8839 42.9422 72.2854C42.9422 71.6787 43.0798 71.1449 43.3548 70.6838C43.6379 70.2228 44.014 69.8628 44.4831 69.604C44.9604 69.3452 45.4983 69.2157 46.0968 69.2157C46.6711 69.2157 47.1847 69.3411 47.6377 69.5919C48.0988 69.8345 48.4627 70.1864 48.7297 70.6474C48.9966 71.1004 49.1301 71.6464 49.1301 72.2854C49.1301 72.9163 48.9966 73.4623 48.7297 73.9233C48.4627 74.3844 48.0988 74.7403 47.6377 74.991C47.1847 75.2418 46.6711 75.3671 46.0968 75.3671ZM46.1454 74.8212C46.6549 74.8212 47.1039 74.716 47.4921 74.5057C47.8804 74.2873 48.1837 73.988 48.4021 73.6079C48.6286 73.2196 48.7418 72.7788 48.7418 72.2854C48.7418 71.7839 48.6286 71.343 48.4021 70.9629C48.1837 70.5827 47.8804 70.2875 47.4921 70.0772C47.1039 69.8669 46.6549 69.7617 46.1454 69.7617C45.6519 69.7617 45.2071 69.8669 44.8107 70.0772C44.4225 70.2875 44.1151 70.5827 43.8886 70.9629C43.6702 71.343 43.561 71.7839 43.561 72.2854C43.561 72.7788 43.6702 73.2196 43.8886 73.6079C44.1151 73.988 44.4225 74.2873 44.8107 74.5057C45.2071 74.716 45.6519 74.8212 46.1454 74.8212Z" fill="white"/>
<path d="M51.3218 77.3327L51.7949 75.2822L51.8556 75.6341C51.7019 75.6341 51.5725 75.5855 51.4674 75.4885C51.3703 75.3914 51.3218 75.2701 51.3218 75.1245C51.3218 74.9789 51.3703 74.8576 51.4674 74.7605C51.5725 74.6634 51.6938 74.6149 51.8313 74.6149C51.985 74.6149 52.1064 74.6675 52.1953 74.7726C52.2924 74.8697 52.3409 74.987 52.3409 75.1245C52.3409 75.1811 52.3369 75.2377 52.3288 75.2943C52.3207 75.351 52.3086 75.4076 52.2924 75.4642C52.2762 75.5208 52.256 75.5936 52.2317 75.6826L51.7586 77.3327H51.3218Z" fill="white"/>
<path d="M61.2348 75.6583C60.6039 75.6583 60.0174 75.5532 59.4755 75.3429C58.9416 75.1245 58.4765 74.8212 58.0802 74.4329C57.6839 74.0446 57.3765 73.5917 57.1581 73.074C56.9397 72.5483 56.8305 71.974 56.8305 71.3511C56.8305 70.7283 56.9397 70.1581 57.1581 69.6404C57.3765 69.1146 57.6839 68.6576 58.0802 68.2694C58.4846 67.8811 58.9538 67.5818 59.4876 67.3715C60.0215 67.1531 60.6039 67.0439 61.2348 67.0439C61.8333 67.0439 62.3914 67.141 62.9091 67.3351C63.4349 67.5293 63.8838 67.8245 64.2559 68.2208L63.8676 68.6212C63.5036 68.2653 63.0992 68.0105 62.6543 67.8568C62.2175 67.6951 61.7524 67.6142 61.259 67.6142C60.7171 67.6142 60.2116 67.7072 59.7424 67.8932C59.2814 68.0793 58.8769 68.3422 58.5291 68.6819C58.1894 69.0216 57.9225 69.4179 57.7283 69.8709C57.5423 70.3239 57.4493 70.8173 57.4493 71.3511C57.4493 71.885 57.5423 72.3784 57.7283 72.8314C57.9225 73.2843 58.1894 73.6807 58.5291 74.0204C58.8769 74.3601 59.2814 74.623 59.7424 74.809C60.2116 74.9951 60.7171 75.0881 61.259 75.0881C61.7524 75.0881 62.2175 75.0112 62.6543 74.8576C63.0992 74.6958 63.5036 74.4329 63.8676 74.0689L64.2559 74.4693C63.8838 74.8656 63.4349 75.1649 62.9091 75.3671C62.3914 75.5613 61.8333 75.6583 61.2348 75.6583Z" fill="white"/>
<path d="M68.3132 75.6462C67.7066 75.6462 67.1646 75.5087 66.6874 75.2337C66.2183 74.9587 65.8421 74.5785 65.559 74.0932C65.284 73.6079 65.1465 73.0538 65.1465 72.431C65.1465 71.8001 65.284 71.246 65.559 70.7688C65.8421 70.2834 66.2183 69.9033 66.6874 69.6283C67.1646 69.3532 67.7066 69.2157 68.3132 69.2157C68.9199 69.2157 69.4618 69.3532 69.939 69.6283C70.4163 69.9033 70.7924 70.2834 71.0674 70.7688C71.3424 71.246 71.4799 71.8001 71.4799 72.431C71.4799 73.0538 71.3424 73.6079 71.0674 74.0932C70.7924 74.5785 70.4163 74.9587 69.939 75.2337C69.4618 75.5087 68.9199 75.6462 68.3132 75.6462ZM68.3132 75.1002C68.7985 75.1002 69.2353 74.991 69.6236 74.7726C70.0118 74.5461 70.3152 74.2307 70.5335 73.8263C70.7519 73.4218 70.8611 72.9567 70.8611 72.431C70.8611 71.8971 70.7519 71.432 70.5335 71.0357C70.3152 70.6312 70.0118 70.3198 69.6236 70.1014C69.2353 69.875 68.7985 69.7617 68.3132 69.7617C67.8279 69.7617 67.3911 69.875 67.0029 70.1014C66.6227 70.3198 66.3194 70.6312 66.0929 71.0357C65.8745 71.432 65.7653 71.8971 65.7653 72.431C65.7653 72.9567 65.8745 73.4218 66.0929 73.8263C66.3194 74.2307 66.6227 74.5461 67.0029 74.7726C67.3911 74.991 67.8279 75.1002 68.3132 75.1002Z" fill="white"/>
<path d="M72.5031 75.5977V75.1852L76.8345 69.5797L76.9923 69.786H72.5637V69.2643H77.4655V69.6768L73.1219 75.2822L72.9399 75.076H77.5382V75.5977H72.5031Z" fill="white"/>
<path d="M79.0933 78C78.8021 78 78.5271 77.9515 78.2682 77.8544C78.0175 77.7573 77.8031 77.6158 77.6252 77.4297L77.9285 76.9687C78.0903 77.1386 78.2642 77.2639 78.4502 77.3448C78.6443 77.4257 78.8627 77.4661 79.1054 77.4661C79.3966 77.4661 79.6514 77.3853 79.8698 77.2235C80.0963 77.0617 80.3065 76.7665 80.5007 76.3378L80.9375 75.3671L81.0224 75.2579L83.7038 69.2643H84.3226L81.0709 76.4591C80.9011 76.8474 80.715 77.1507 80.5128 77.3691C80.3187 77.5956 80.1043 77.7573 79.8698 77.8544C79.6352 77.9515 79.3764 78 79.0933 78ZM80.9253 75.7554L77.9892 69.2643H78.6322L81.3015 75.2215L80.9253 75.7554Z" fill="white"/>
<path d="M84.6519 77.3327L85.1251 75.2822L85.1857 75.6341C85.032 75.6341 84.9026 75.5855 84.7975 75.4885C84.7004 75.3914 84.6519 75.2701 84.6519 75.1245C84.6519 74.9789 84.7004 74.8576 84.7975 74.7605C84.9026 74.6634 85.0239 74.6149 85.1614 74.6149C85.3151 74.6149 85.4365 74.6675 85.5254 74.7726C85.6225 74.8697 85.671 74.987 85.671 75.1245C85.671 75.1811 85.667 75.2377 85.6589 75.2943C85.6508 75.351 85.6387 75.4076 85.6225 75.4642C85.6063 75.5208 85.5861 75.5936 85.5618 75.6826L85.0886 77.3327H84.6519Z" fill="white"/>
<path d="M94.5649 75.6583C93.934 75.6583 93.3475 75.5532 92.8056 75.3429C92.2717 75.1245 91.8066 74.8212 91.4103 74.4329C91.014 74.0446 90.7066 73.5917 90.4882 73.074C90.2698 72.5483 90.1606 71.974 90.1606 71.3511C90.1606 70.7283 90.2698 70.1581 90.4882 69.6404C90.7066 69.1146 91.014 68.6576 91.4103 68.2694C91.8147 67.8811 92.2839 67.5818 92.8177 67.3715C93.3516 67.1531 93.934 67.0439 94.5649 67.0439C95.1634 67.0439 95.7215 67.141 96.2392 67.3351C96.765 67.5293 97.2139 67.8245 97.586 68.2208L97.1977 68.6212C96.8337 68.2653 96.4293 68.0105 95.9844 67.8568C95.5476 67.6951 95.0825 67.6142 94.5891 67.6142C94.0472 67.6142 93.5417 67.7072 93.0725 67.8932C92.6115 68.0793 92.207 68.3422 91.8592 68.6819C91.5195 69.0216 91.2526 69.4179 91.0584 69.8709C90.8724 70.3239 90.7794 70.8173 90.7794 71.3511C90.7794 71.885 90.8724 72.3784 91.0584 72.8314C91.2526 73.2843 91.5195 73.6807 91.8592 74.0204C92.207 74.3601 92.6115 74.623 93.0725 74.809C93.5417 74.9951 94.0472 75.0881 94.5891 75.0881C95.0825 75.0881 95.5476 75.0112 95.9844 74.8576C96.4293 74.6958 96.8337 74.4329 97.1977 74.0689L97.586 74.4693C97.2139 74.8656 96.765 75.1649 96.2392 75.3671C95.7215 75.5613 95.1634 75.6583 94.5649 75.6583Z" fill="white"/>
<path d="M101.643 75.6462C101.037 75.6462 100.495 75.5087 100.018 75.2337C99.5484 74.9587 99.1722 74.5785 98.8891 74.0932C98.6141 73.6079 98.4766 73.0538 98.4766 72.431C98.4766 71.8001 98.6141 71.246 98.8891 70.7688C99.1722 70.2834 99.5484 69.9033 100.018 69.6283C100.495 69.3532 101.037 69.2157 101.643 69.2157C102.25 69.2157 102.792 69.3532 103.269 69.6283C103.746 69.9033 104.122 70.2834 104.397 70.7688C104.673 71.246 104.81 71.8001 104.81 72.431C104.81 73.0538 104.673 73.6079 104.397 74.0932C104.122 74.5785 103.746 74.9587 103.269 75.2337C102.792 75.5087 102.25 75.6462 101.643 75.6462ZM101.643 75.1002C102.129 75.1002 102.565 74.991 102.954 74.7726C103.342 74.5461 103.645 74.2307 103.864 73.8263C104.082 73.4218 104.191 72.9567 104.191 72.431C104.191 71.8971 104.082 71.432 103.864 71.0357C103.645 70.6312 103.342 70.3198 102.954 70.1014C102.565 69.875 102.129 69.7617 101.643 69.7617C101.158 69.7617 100.721 69.875 100.333 70.1014C99.9528 70.3198 99.6495 70.6312 99.423 71.0357C99.2046 71.432 99.0954 71.8971 99.0954 72.431C99.0954 72.9567 99.2046 73.4218 99.423 73.8263C99.6495 74.2307 99.9528 74.5461 100.333 74.7726C100.721 74.991 101.158 75.1002 101.643 75.1002Z" fill="white"/>
<path d="M114.578 69.2157C115.088 69.2157 115.529 69.3168 115.901 69.5191C116.281 69.7132 116.576 70.0125 116.787 70.4169C116.997 70.8132 117.102 71.3066 117.102 71.8971V75.5977H116.495V71.9456C116.495 71.2338 116.322 70.6919 115.974 70.3198C115.626 69.9478 115.141 69.7617 114.518 69.7617C114.041 69.7617 113.628 69.8628 113.28 70.065C112.932 70.2673 112.666 70.5504 112.479 70.9143C112.293 71.2783 112.2 71.7151 112.2 72.2247V75.5977H111.594V71.9456C111.594 71.2338 111.42 70.6919 111.072 70.3198C110.724 69.9478 110.239 69.7617 109.616 69.7617C109.139 69.7617 108.726 69.8628 108.379 70.065C108.031 70.2673 107.764 70.5504 107.578 70.9143C107.392 71.2783 107.299 71.7151 107.299 72.2247V75.5977H106.692V69.2643H107.274V71.0114L107.189 70.8173C107.376 70.3239 107.687 69.9356 108.124 69.6525C108.561 69.3613 109.086 69.2157 109.701 69.2157C110.332 69.2157 110.862 69.3775 111.29 69.701C111.727 70.0165 112.002 70.4897 112.115 71.1206L111.909 71.0357C112.079 70.4937 112.399 70.057 112.868 69.7253C113.337 69.3856 113.907 69.2157 114.578 69.2157Z" fill="white"/>
<path d="M119.728 75.5977V68.2936C119.728 67.7679 119.878 67.3473 120.177 67.0318C120.485 66.7083 120.921 66.5465 121.488 66.5465C121.722 66.5465 121.953 66.5829 122.179 66.6557C122.406 66.7204 122.592 66.8215 122.737 66.959L122.495 67.4201C122.373 67.2987 122.228 67.2098 122.058 67.1531C121.888 67.0965 121.706 67.0682 121.512 67.0682C121.124 67.0682 120.828 67.1774 120.626 67.3958C120.424 67.6061 120.323 67.9215 120.323 68.3422V69.4099L120.335 69.701V75.5977H119.728ZM118.564 69.786V69.2643H122.349V69.786H118.564Z" fill="white"/>
<path d="M125.957 75.6462C125.35 75.6462 124.808 75.5087 124.331 75.2337C123.862 74.9587 123.486 74.5785 123.202 74.0932C122.927 73.6079 122.79 73.0538 122.79 72.431C122.79 71.8001 122.927 71.246 123.202 70.7688C123.486 70.2834 123.862 69.9033 124.331 69.6283C124.808 69.3532 125.35 69.2157 125.957 69.2157C126.563 69.2157 127.105 69.3532 127.582 69.6283C128.06 69.9033 128.436 70.2834 128.711 70.7688C128.986 71.246 129.123 71.8001 129.123 72.431C129.123 73.0538 128.986 73.6079 128.711 74.0932C128.436 74.5785 128.06 74.9587 127.582 75.2337C127.105 75.5087 126.563 75.6462 125.957 75.6462ZM125.957 75.1002C126.442 75.1002 126.879 74.991 127.267 74.7726C127.655 74.5461 127.959 74.2307 128.177 73.8263C128.395 73.4218 128.505 72.9567 128.505 72.431C128.505 71.8971 128.395 71.432 128.177 71.0357C127.959 70.6312 127.655 70.3198 127.267 70.1014C126.879 69.875 126.442 69.7617 125.957 69.7617C125.471 69.7617 125.035 69.875 124.646 70.1014C124.266 70.3198 123.963 70.6312 123.736 71.0357C123.518 71.432 123.409 71.8971 123.409 72.431C123.409 72.9567 123.518 73.4218 123.736 73.8263C123.963 74.2307 124.266 74.5461 124.646 74.7726C125.035 74.991 125.471 75.1002 125.957 75.1002Z" fill="white"/>
<path d="M131.005 75.5977V69.2643H131.588V70.9993L131.527 70.8052C131.705 70.2956 132.004 69.9033 132.425 69.6283C132.846 69.3532 133.371 69.2157 134.002 69.2157V69.8102C133.978 69.8102 133.954 69.8102 133.929 69.8102C133.905 69.8022 133.881 69.7981 133.857 69.7981C133.153 69.7981 132.603 70.0206 132.207 70.4654C131.81 70.9022 131.612 71.5129 131.612 72.2975V75.5977H131.005Z" fill="white"/>
<path d="M137.802 75.6462C137.244 75.6462 136.815 75.4925 136.516 75.1852C136.225 74.8778 136.079 74.4572 136.079 73.9233V67.8811H136.686V73.8627C136.686 74.2671 136.787 74.5785 136.989 74.7969C137.192 75.0153 137.483 75.1245 137.863 75.1245C138.259 75.1245 138.587 75.0072 138.846 74.7726L139.101 75.1973C138.939 75.351 138.741 75.4642 138.506 75.537C138.28 75.6098 138.045 75.6462 137.802 75.6462ZM134.915 69.786V69.2643H138.7V69.786H134.915Z" fill="white"/>
<path d="M144.784 75.5977V74.1538L144.76 73.9355V71.5574C144.76 70.9669 144.598 70.518 144.274 70.2106C143.959 69.9033 143.494 69.7496 142.879 69.7496C142.442 69.7496 142.034 69.8264 141.654 69.9801C141.282 70.1257 140.962 70.3158 140.695 70.5504L140.392 70.1136C140.707 69.8305 141.088 69.6121 141.532 69.4584C141.977 69.2966 142.442 69.2157 142.928 69.2157C143.712 69.2157 144.315 69.4139 144.736 69.8102C145.156 70.2066 145.366 70.7971 145.366 71.5817V75.5977H144.784ZM142.503 75.6462C142.034 75.6462 141.625 75.5734 141.278 75.4278C140.938 75.2741 140.675 75.0598 140.489 74.7848C140.311 74.5097 140.222 74.1943 140.222 73.8384C140.222 73.5148 140.295 73.2237 140.44 72.9648C140.594 72.6979 140.845 72.4836 141.193 72.3218C141.54 72.1519 142.006 72.067 142.588 72.067H144.918V72.5402H142.6C141.945 72.5402 141.484 72.6615 141.217 72.9042C140.958 73.1468 140.829 73.4501 140.829 73.8141C140.829 74.2186 140.982 74.5421 141.29 74.7848C141.597 75.0274 142.03 75.1487 142.588 75.1487C143.122 75.1487 143.571 75.0274 143.935 74.7848C144.307 74.5421 144.582 74.1902 144.76 73.7292L144.93 74.1417C144.76 74.6028 144.469 74.9708 144.056 75.2458C143.652 75.5127 143.134 75.6462 142.503 75.6462Z" fill="white"/>
<path d="M151.045 75.6462C150.487 75.6462 149.981 75.5168 149.528 75.2579C149.083 74.9991 148.727 74.627 148.46 74.1417C148.202 73.6564 148.072 73.0862 148.072 72.431C148.072 71.7596 148.202 71.1853 148.46 70.7081C148.727 70.2309 149.083 69.8628 149.528 69.604C149.981 69.3452 150.487 69.2157 151.045 69.2157C151.643 69.2157 152.177 69.3532 152.646 69.6283C153.124 69.8952 153.496 70.2713 153.763 70.7566C154.038 71.2338 154.175 71.792 154.175 72.431C154.175 73.0619 154.038 73.62 153.763 74.1053C153.496 74.5906 153.124 74.9708 152.646 75.2458C152.177 75.5127 151.643 75.6462 151.045 75.6462ZM147.866 75.5977V66.595H148.473V71.3147L148.351 72.4188L148.448 73.5229V75.5977H147.866ZM151.008 75.1002C151.494 75.1002 151.93 74.991 152.319 74.7726C152.707 74.5461 153.01 74.2307 153.229 73.8263C153.455 73.4218 153.568 72.9567 153.568 72.431C153.568 71.8971 153.455 71.432 153.229 71.0357C153.01 70.6312 152.707 70.3198 152.319 70.1014C151.93 69.875 151.494 69.7617 151.008 69.7617C150.523 69.7617 150.086 69.875 149.698 70.1014C149.318 70.3198 149.015 70.6312 148.788 71.0357C148.57 71.432 148.46 71.8971 148.46 72.431C148.46 72.9567 148.57 73.4218 148.788 73.8263C149.015 74.2307 149.318 74.5461 149.698 74.7726C150.086 74.991 150.523 75.1002 151.008 75.1002Z" fill="white"/>
<path d="M156.053 75.5977V66.595H156.66V75.5977H156.053Z" fill="white"/>
<path d="M161.789 75.6462C161.15 75.6462 160.584 75.5087 160.09 75.2337C159.605 74.9587 159.221 74.5785 158.938 74.0932C158.663 73.6079 158.525 73.0538 158.525 72.431C158.525 71.8001 158.655 71.246 158.914 70.7688C159.18 70.2834 159.544 69.9033 160.006 69.6283C160.467 69.3532 160.984 69.2157 161.559 69.2157C162.133 69.2157 162.646 69.3492 163.099 69.6161C163.56 69.883 163.92 70.2592 164.179 70.7445C164.446 71.2217 164.58 71.7758 164.58 72.4067C164.58 72.431 164.576 72.4593 164.568 72.4916C164.568 72.5159 164.568 72.5442 164.568 72.5766H158.974V72.1034H164.24L163.997 72.3339C164.005 71.8405 163.9 71.3997 163.682 71.0114C163.471 70.6151 163.184 70.3077 162.82 70.0893C162.456 69.8628 162.036 69.7496 161.559 69.7496C161.089 69.7496 160.669 69.8628 160.297 70.0893C159.933 70.3077 159.646 70.6151 159.435 71.0114C159.225 71.3997 159.12 71.8445 159.12 72.346V72.4552C159.12 72.9729 159.233 73.434 159.46 73.8384C159.694 74.2347 160.014 74.5461 160.418 74.7726C160.822 74.991 161.284 75.1002 161.801 75.1002C162.206 75.1002 162.582 75.0274 162.93 74.8818C163.285 74.7362 163.585 74.5138 163.827 74.2145L164.179 74.6149C163.904 74.9546 163.556 75.2135 163.136 75.3914C162.723 75.5613 162.274 75.6462 161.789 75.6462Z" fill="white"/>
</svg>
